<?xml version="1.0" standalone="no"?>
<!DOCTYPE svg PUBLIC "-//W3C//DTD SVG 20010904//EN"
 "http://www.w3.org/TR/2001/REC-SVG-20010904/DTD/svg10.dtd">
<svg version="1.0" xmlns="http://www.w3.org/2000/svg"
 width="1206.000000pt" height="968.000000pt" viewBox="0 0 1206.000000 968.000000"
 preserveAspectRatio="xMidYMid meet">

<g transform="translate(0.000000,968.000000) scale(0.100000,-0.100000)"
fill="#000000" stroke="none">
<path d="M0 4860 l0 -4820 6030 0 6030 0 0 4820 0 4820 -6030 0 -6030 0 0
-4820z m4458 2813 l272 -6 58 -71 c32 -39 75 -96 94 -127 46 -72 146 -179 212
-226 28 -20 89 -73 136 -118 47 -44 141 -129 210 -189 225 -196 250 -219 250
-233 0 -7 4 -13 10 -13 12 0 76 -92 72 -105 -2 -5 -1 -7 3 -3 10 10 35 -17 35
-37 0 -9 5 -13 10 -10 6 3 10 0 10 -8 0 -8 16 -30 35 -50 19 -20 35 -40 35
-45 0 -17 -216 -22 -919 -21 l-706 1 127 32 c69 18 141 43 160 54 88 55 142
148 141 247 0 99 -75 349 -158 527 l-26 57 -317 3 -317 3 -50 27 c-103 54
-179 160 -192 266 l-6 52 275 0 c151 0 397 -3 546 -7z m3948 -219 c-3 -26 -6
-62 -6 -80 l0 -34 -317 1 c-175 0 -313 3 -307 5 12 5 615 152 628 153 5 1 6
-20 2 -45z m522 -396 c-3 -7 -41 -123 -86 -258 -401 -1215 -483 -1464 -488
-1471 -5 -9 -85 20 -267 96 -125 53 -157 72 -157 95 0 6 -4 8 -10 5 -5 -3 -10
1 -10 9 0 10 -9 16 -21 16 -17 0 -19 3 -10 14 9 11 7 18 -13 34 l-25 19 29 28
c35 33 26 45 -34 45 -25 0 -47 8 -67 24 -15 13 -26 26 -23 28 2 3 -7 11 -21
18 -14 7 -25 19 -25 27 0 7 -5 13 -11 13 -5 0 -7 5 -4 10 4 6 1 9 -6 8 -7 -2
-18 7 -24 20 -7 12 -16 26 -20 30 -5 4 -5 1 0 -7 5 -9 4 -12 -3 -7 -7 4 -12
14 -12 22 0 8 -4 13 -9 9 -5 -3 -13 0 -17 6 -4 8 -3 9 4 5 7 -4 12 -2 12 4 0
7 -9 14 -20 17 -11 3 -18 9 -15 13 3 5 -15 30 -40 57 -26 27 -43 54 -40 62 4
11 3 11 -9 2 -12 -10 -16 -8 -21 9 -4 11 -11 17 -17 14 -7 -5 -9 -1 -5 9 4 10
-1 18 -13 22 -10 3 -24 13 -32 22 -11 14 -11 16 2 8 13 -8 13 -7 1 8 -7 9 -21
17 -30 17 -14 0 -14 2 -1 10 12 8 11 10 -7 10 -16 0 -23 6 -23 21 0 11 -4 17
-10 14 -5 -3 -10 3 -10 14 0 10 -4 21 -10 23 -5 2 35 35 90 73 54 39 98 75 96
80 -1 6 -75 13 -177 16 -203 8 -189 6 -189 20 0 5 4 8 9 4 5 -3 12 -1 15 4 4
5 -5 8 -20 6 -17 -1 -24 2 -20 11 5 14 -17 37 -27 27 -4 -3 -7 5 -7 18 0 19
-2 21 -10 9 -9 -13 -10 -13 -10 1 0 8 6 21 13 29 10 12 9 12 -5 2 -17 -14 -19
-12 -44 33 -6 11 -16 19 -22 17 -7 -1 -12 4 -12 12 0 7 -8 20 -17 27 -14 12
-16 12 -9 -1 4 -8 0 -6 -8 4 -9 11 -16 26 -16 33 0 7 -6 13 -12 13 -9 0 -8 4
2 10 13 8 12 10 -3 10 -10 0 -20 7 -23 15 -4 8 -13 15 -21 15 -13 0 -13 2 -2
17 13 15 12 16 -9 11 -12 -4 -20 -3 -18 1 6 9 -30 42 -37 35 -3 -3 -8 0 -13 7
-4 7 -3 10 4 5 6 -3 13 -2 16 2 3 5 -6 15 -19 22 -18 10 -22 17 -14 26 8 9 5
11 -9 7 -11 -2 -23 0 -26 6 -5 7 -1 9 11 5 15 -6 15 -4 -2 9 -11 9 -26 17 -34
17 -10 0 -11 3 -2 14 10 11 8 16 -8 21 -11 3 -20 9 -20 13 3 21 -2 32 -13 26
-8 -5 -9 -2 -5 9 3 9 3 16 -1 14 -13 -4 -64 42 -57 53 10 16 2309 14 2303 -2z
m-2786 -935 c10 -9 20 -24 23 -34 3 -10 15 -21 26 -24 10 -4 17 -11 13 -16 -3
-6 4 -18 16 -29 12 -10 21 -21 20 -25 -2 -11 37 -54 44 -48 3 3 6 1 6 -5 0 -6
11 -24 25 -40 13 -16 21 -33 17 -37 -4 -5 -2 -5 5 -1 7 4 18 -4 27 -21 13 -26
38 -59 69 -93 8 -8 19 -25 25 -36 11 -20 8 -22 -41 -28 -29 -3 -448 -6 -932
-5 l-880 0 125 38 c69 21 143 47 166 59 54 27 109 90 139 157 28 63 102 142
160 170 79 37 122 40 532 37 342 -3 400 -6 415 -19z m546 -725 c17 -5 32 -13
32 -18 0 -5 14 -24 30 -42 17 -18 30 -36 30 -40 0 -5 7 -8 15 -8 8 0 15 -8 15
-18 0 -10 8 -25 18 -33 31 -29 53 -60 47 -69 -3 -5 4 -11 15 -15 11 -3 20 -13
20 -21 0 -8 4 -14 8 -14 5 0 15 -12 23 -27 14 -29 24 -41 80 -103 l32 -35 -39
-7 c-22 -4 -133 -7 -249 -8 -182 0 -215 -3 -251 -19 -55 -25 -80 -69 -89 -156
-14 -134 -67 -225 -169 -289 -66 -41 -118 -56 -199 -56 -97 0 -168 30 -243
105 -45 44 -67 76 -83 120 -27 71 -31 178 -8 242 8 23 12 45 9 48 -3 3 -186 5
-406 5 l-401 0 52 24 c119 56 211 135 302 261 24 33 56 73 70 88 34 37 132 87
190 97 65 11 1109 0 1149 -12z m-2516 -1635 c35 -17 81 -45 103 -64 39 -34 95
-105 95 -120 0 -4 -39 -28 -87 -53 l-88 -46 -40 39 c-55 53 -95 71 -158 71
-73 0 -133 -32 -174 -93 -63 -94 -51 -202 33 -275 97 -86 214 -78 305 20 l37
39 86 -47 c47 -26 86 -52 86 -58 -1 -21 -66 -97 -118 -135 -171 -129 -401
-113 -553 38 -65 65 -103 140 -119 234 -30 169 63 357 214 434 88 45 125 53
222 49 77 -3 103 -8 156 -33z m885 -368 c78 -214 146 -398 149 -408 5 -16 -3
-17 -107 -15 l-112 3 -25 68 -25 68 -135 -3 -136 -3 -26 -65 -26 -65 -107 -3
c-85 -2 -107 0 -107 11 0 7 63 186 140 398 77 211 142 390 145 397 3 9 32 12
117 10 l111 -3 144 -390z m724 363 c98 -58 143 -142 137 -258 -4 -86 -25 -136
-76 -187 -21 -22 -32 -40 -28 -50 4 -8 40 -76 81 -149 41 -74 75 -136 75 -139
0 -3 -53 -5 -117 -5 l-118 0 -71 128 -71 127 -47 3 -46 3 0 -131 0 -131 -102
3 -103 3 -3 395 c-1 217 0 401 3 408 4 11 49 13 222 10 217 -3 218 -3 264 -30z
m849 -63 l0 -94 -102 -3 -103 -3 -3 -312 -2 -313 -100 0 -100 0 -2 313 -3 312
-102 3 -103 3 0 94 0 95 310 0 310 0 0 -95z m322 83 c2 -7 4 -191 3 -408 l0
-395 -103 -3 -102 -3 0 411 0 410 99 0 c70 0 100 -4 103 -12z m703 -83 l0 -90
-155 -5 -155 -5 0 -55 0 -55 145 -5 145 -5 3 -97 3 -97 -148 -3 -148 -3 -3
-152 -3 -153 -99 0 -100 0 0 410 0 410 258 -2 257 -3 0 -90z m385 -47 c41 -75
78 -139 81 -143 4 -3 42 60 85 140 l78 145 113 0 c73 0 113 -4 113 -11 0 -6
-62 -124 -137 -262 l-138 -252 -5 -145 -5 -145 -102 -3 -103 -3 0 137 0 138
-142 265 c-79 146 -145 269 -146 273 -2 5 49 7 114 6 l119 -3 75 -137z m-3778
-1259 c43 -105 75 -195 72 -200 -3 -5 -19 -9 -35 -9 -25 0 -33 6 -42 30 l-11
30 -98 0 -97 0 -16 -30 c-12 -23 -22 -30 -45 -30 -16 0 -31 3 -34 8 -2 4 24
77 59 162 103 255 89 230 132 230 l38 0 77 -191z m459 44 c36 -81 69 -148 75
-150 5 -1 38 64 74 145 l66 147 42 3 42 3 -2 -198 -3 -198 -30 0 -30 0 -3 103
c-1 56 -6 102 -11 102 -5 0 -28 -45 -52 -100 -45 -105 -57 -116 -110 -108 -25
3 -35 19 -94 148 l-30 65 -3 -85 c-3 -124 -6 -132 -45 -128 l-32 3 -3 185 c-1
101 0 190 2 197 3 7 22 13 43 13 l38 0 66 -147z m842 -43 c43 -105 75 -195 72
-200 -4 -6 -20 -10 -36 -10 -25 0 -33 6 -42 30 l-11 30 -98 0 -97 0 -16 -30
c-12 -23 -22 -30 -45 -30 -16 0 -31 4 -34 8 -4 7 130 351 149 382 3 6 23 10
44 10 l37 0 77 -190z m496 55 c50 -74 96 -135 101 -135 6 0 10 56 10 135 l0
135 35 0 35 0 -2 -197 -3 -198 -45 0 -45 0 -95 139 -95 138 -5 -138 -5 -139
-29 -3 c-16 -2 -32 2 -37 10 -10 15 -12 372 -2 381 3 4 25 7 48 7 l41 0 93
-135z m1067 93 c50 -56 47 -115 -12 -178 l-23 -25 44 -69 c24 -39 42 -74 39
-78 -3 -4 -20 -8 -39 -8 -31 0 -37 6 -81 75 l-47 76 -66 -3 -66 -3 -3 -73 -3
-73 -32 3 -32 3 -3 198 -2 198 146 -3 146 -3 34 -37z m575 -156 c82 -201 83
-208 27 -200 -13 2 -28 15 -36 31 -13 27 -14 27 -112 27 -94 0 -99 -1 -106
-22 -4 -13 -12 -26 -18 -30 -18 -12 -66 -9 -66 4 0 7 34 97 77 201 l76 188 40
-3 39 -3 79 -193z m377 1 l-3 -198 -30 0 -30 0 -3 198 -2 197 35 0 35 0 -2
-197z"/>
<path d="M4796 3462 c-5 -9 -56 -142 -56 -148 0 -2 27 -4 60 -4 33 0 60 3 60
6 0 9 -52 154 -56 154 -1 0 -5 -4 -8 -8z"/>
<path d="M5507 3593 c-4 -3 -7 -42 -7 -85 l0 -78 83 0 c59 0 89 4 105 16 58
41 44 124 -25 143 -42 12 -146 15 -156 4z"/>
<path d="M4120 2414 c-11 -25 -23 -57 -26 -70 -6 -23 -5 -24 56 -24 46 0 61 3
57 13 -35 88 -53 127 -60 127 -4 0 -17 -21 -27 -46z"/>
<path d="M5415 2401 c-16 -39 -26 -74 -23 -77 3 -3 31 -4 61 -2 l55 3 -27 67
c-14 36 -29 69 -32 73 -4 3 -19 -26 -34 -64z"/>
<path d="M6874 2497 c-3 -8 -4 -32 -2 -53 l3 -39 76 -3 c91 -3 126 8 135 43
11 46 -14 60 -116 63 -73 3 -91 1 -96 -11z"/>
<path d="M7547 2395 c-15 -36 -27 -68 -27 -70 0 -3 27 -5 60 -5 33 0 60 4 60
8 0 17 -48 126 -57 129 -5 2 -21 -26 -36 -62z"/>
</g>
</svg>
